<?xml version="1.0" encoding="UTF-8" standalone="no"?>
<!-- Generator: Gravit.io -->

<svg
   style="isolation:isolate"
   viewBox="0 0 450 450"
   width="450"
   height="450"
   version="1.1"
   id="svg54"
   sodipodi:docname="Space-Fighter-2.svg"
   inkscape:version="1.1.1 (3bf5ae0d25, 2021-09-20)"
   xmlns:inkscape="http://www.inkscape.org/namespaces/inkscape"
   xmlns:sodipodi="http://sodipodi.sourceforge.net/DTD/sodipodi-0.dtd"
   xmlns="http://www.w3.org/2000/svg"
   xmlns:svg="http://www.w3.org/2000/svg">
  <sodipodi:namedview
     id="namedview56"
     pagecolor="#ffffff"
     bordercolor="#666666"
     borderopacity="1.0"
     inkscape:pageshadow="2"
     inkscape:pageopacity="0.0"
     inkscape:pagecheckerboard="0"
     showgrid="false"
     inkscape:zoom="1.8711111"
     inkscape:cx="224.73278"
     inkscape:cy="225.26722"
     inkscape:window-width="1920"
     inkscape:window-height="1027"
     inkscape:window-x="-8"
     inkscape:window-y="-8"
     inkscape:window-maximized="1"
     inkscape:current-layer="svg54" />
  <defs
     id="defs5">
    <clipPath
       id="_clipPath_sqw8sD3hp8F85bQUW9ZOX5rHTeD9S75T">
      <rect
         width="450"
         height="450"
         id="rect2" />
    </clipPath>
  </defs>
  <g
     clip-path="url(#_clipPath_sqw8sD3hp8F85bQUW9ZOX5rHTeD9S75T)"
     id="g52">
    <g
       id="Group">
      <line
         x1="402.183"
         y1="239.125"
         x2="402.183"
         y2="140.242"
         vector-effect="non-scaling-stroke"
         stroke-width="20.817"
         stroke="rgb(116,150,196)"
         stroke-linejoin="miter"
         stroke-linecap="butt"
         stroke-miterlimit="10"
         id="line7" />
      <line
         x1="48.288"
         y1="239.125"
         x2="48.288"
         y2="140.242"
         vector-effect="non-scaling-stroke"
         stroke-width="20.817"
         stroke="rgb(116,150,196)"
         stroke-linejoin="miter"
         stroke-linecap="butt"
         stroke-miterlimit="10"
         id="line9" />
      <path
         d=" M 188.805 251.022 L 188.805 152.139 C 188.805 96.578 214.962 51.748 225.246 36.26 C 235.55 51.685 261.666 96.286 261.666 152.139 L 261.666 251.022 L 188.805 251.022 Z "
         fill="rgb(139,183,240)"
         id="path11" />
      <path
         d=" M 225.277 45.94 C 236.831 64.904 256.461 104.187 256.461 152.139 L 256.461 245.817 L 194.009 245.817 L 194.009 152.139 C 194.009 104.593 213.723 65.04 225.277 45.94 Z  M 225.235 27.235 C 225.235 27.235 183.601 80.58 183.601 152.139 L 183.601 256.226 L 266.87 256.226 L 266.87 152.139 C 266.87 80.153 225.235 27.235 225.235 27.235 Z "
         fill="rgb(78,122,181)"
         id="path13" />
      <rect
         x="272.074"
         y="357.336"
         width="41.635"
         height="60.225"
         transform="matrix(1,0,0,1,0,0)"
         fill="rgb(220,213,242)"
         id="rect15" />
      <path
         d=" M 308.505 362.54 L 308.505 412.356 L 277.279 412.356 L 277.279 362.54 L 308.505 362.54 Z  M 318.913 352.131 L 266.87 352.131 L 266.87 422.765 L 318.913 422.765 L 318.913 352.131 Z "
         fill="rgb(139,117,161)"
         id="path17" />
      <rect
         x="136.762"
         y="357.336"
         width="41.635"
         height="60.225"
         transform="matrix(1,0,0,1,0,0)"
         fill="rgb(220,213,242)"
         id="rect19" />
      <path
         d=" M 173.192 362.54 L 173.192 412.356 L 141.966 412.356 L 141.966 362.54 L 173.192 362.54 Z  M 183.601 352.131 L 131.557 352.131 L 131.557 422.765 L 183.601 422.765 L 183.601 352.131 Z "
         fill="rgb(139,117,161)"
         id="path21" />
      <path
         d=" M 63.901 346.292 L 63.901 271.839 L 386.57 271.839 L 386.57 346.292 L 225.235 406.798 L 63.901 346.292 Z "
         fill="rgb(139,183,240)"
         id="path23" />
      <path
         d=" M 381.365 277.043 L 381.365 342.691 L 225.235 401.24 L 69.105 342.691 L 69.105 277.043 L 381.365 277.043 Z  M 391.774 266.635 L 58.697 266.635 L 58.697 349.904 L 225.235 412.356 L 391.774 349.904 L 391.774 266.635 Z "
         fill="rgb(78,122,181)"
         id="path25" />
      <path
         d=" M 402.183 375.926 C 393.575 375.926 386.57 368.921 386.57 360.313 L 386.57 230.204 L 417.796 230.204 L 417.796 360.313 C 417.796 368.921 410.791 375.926 402.183 375.926 Z "
         fill="rgb(194,232,255)"
         id="path27" />
      <path
         d=" M 412.591 235.409 L 412.591 360.313 C 412.591 366.048 407.918 370.721 402.183 370.721 C 396.447 370.721 391.774 366.048 391.774 360.313 L 391.774 235.409 L 412.591 235.409 Z  M 423 225 L 381.365 225 L 381.365 360.313 C 381.365 371.81 390.686 381.13 402.183 381.13 C 413.68 381.13 423 371.81 423 360.313 L 423 225 Z "
         fill="rgb(116,150,196)"
         id="path29" />
      <path
         d=" M 386.57 131.322 C 386.57 122.705 393.566 115.709 402.183 115.709 C 410.8 115.709 417.796 122.705 417.796 131.322 C 417.796 139.939 410.8 146.935 402.183 146.935 C 393.566 146.935 386.57 139.939 386.57 131.322 Z "
         fill="rgb(247,143,143)"
         id="path31" />
      <path
         d=" M 402.183 120.913 C 407.918 120.913 412.591 125.587 412.591 131.322 C 412.591 137.057 407.918 141.731 402.183 141.731 C 396.447 141.731 391.774 137.057 391.774 131.322 C 391.774 125.587 396.447 120.913 402.183 120.913 Z  M 402.183 110.505 C 394.636 110.334 387.589 114.262 383.764 120.769 C 379.94 127.277 379.938 135.345 383.759 141.855 C 387.58 148.365 394.626 152.296 402.172 152.129 C 413.485 151.879 422.527 142.638 422.529 131.322 C 422.532 120.006 413.496 110.76 402.183 110.505 Z "
         fill="rgb(199,67,67)"
         id="path33" />
      <path
         d=" M 48.288 375.926 C 39.68 375.926 32.675 368.921 32.675 360.313 L 32.675 230.204 L 63.901 230.204 L 63.901 360.313 C 63.901 368.921 56.896 375.926 48.288 375.926 Z "
         fill="rgb(194,232,255)"
         id="path35" />
      <path
         d=" M 58.697 235.409 L 58.697 360.313 C 58.697 366.048 54.023 370.721 48.288 370.721 C 42.553 370.721 37.879 366.048 37.879 360.313 L 37.879 235.409 L 58.697 235.409 Z  M 69.105 225 L 27.471 225 L 27.471 360.313 C 27.471 371.81 36.791 381.13 48.288 381.13 C 59.785 381.13 69.105 371.81 69.105 360.313 L 69.105 225 Z "
         fill="rgb(116,150,196)"
         id="path37" />
      <path
         d=" M 32.675 131.322 C 32.675 122.705 39.671 115.709 48.288 115.709 C 56.905 115.709 63.901 122.705 63.901 131.322 C 63.901 139.939 56.905 146.935 48.288 146.935 C 39.671 146.935 32.675 139.939 32.675 131.322 Z "
         fill="rgb(247,143,143)"
         id="path39" />
      <path
         d=" M 48.288 120.913 C 54.023 120.913 58.697 125.587 58.697 131.322 C 58.697 137.057 54.023 141.731 48.288 141.731 C 42.553 141.731 37.879 137.057 37.879 131.322 C 37.879 125.587 42.553 120.913 48.288 120.913 Z  M 48.288 110.505 C 40.742 110.334 33.694 114.262 29.87 120.769 C 26.045 127.277 26.043 135.345 29.864 141.855 C 33.686 148.365 40.731 152.296 48.278 152.129 C 59.591 151.879 68.632 142.638 68.635 131.322 C 68.637 120.006 59.601 110.76 48.288 110.505 Z "
         fill="rgb(199,67,67)"
         id="path41" />
      <path
         d=" M 225.235 375.926 C 187.889 375.88 157.625 345.616 157.579 308.269 L 157.579 277.043 C 157.579 262.69 169.247 251.022 183.601 251.022 L 266.87 251.022 C 281.224 251.022 292.892 262.69 292.892 277.043 L 292.892 308.269 C 292.892 345.574 262.54 375.926 225.235 375.926 Z "
         fill="rgb(194,232,255)"
         id="path43" />
      <path
         d=" M 266.87 256.226 C 278.351 256.226 287.687 265.563 287.687 277.043 L 287.687 308.269 C 287.687 342.701 259.667 370.721 225.235 370.721 C 190.803 370.721 162.783 342.701 162.783 308.269 L 162.783 277.043 C 162.783 265.563 172.12 256.226 183.601 256.226 L 266.87 256.226 Z  M 266.87 245.817 L 183.601 245.817 C 166.355 245.817 152.375 259.798 152.375 277.043 L 152.375 308.269 C 152.375 348.509 184.995 381.13 225.235 381.13 C 265.475 381.13 298.096 348.509 298.096 308.269 L 298.096 277.043 C 298.096 259.798 284.116 245.817 266.87 245.817 Z "
         fill="rgb(78,122,181)"
         id="path45" />
      <path
         d=" M 188.805 251.022 L 188.805 245.817 C 188.805 225.729 205.147 209.387 225.235 209.387 C 245.324 209.387 261.666 225.729 261.666 245.817 L 261.666 251.022 L 188.805 251.022 Z "
         fill="rgb(194,232,255)"
         id="path47" />
      <path
         d=" M 225.235 214.591 C 242.451 214.591 256.461 228.601 256.461 245.817 L 194.009 245.817 C 194.009 228.601 208.019 214.591 225.235 214.591 Z  M 225.235 204.183 C 202.241 204.183 183.601 222.823 183.601 245.817 L 183.601 256.226 L 266.87 256.226 L 266.87 245.817 C 266.87 222.823 248.23 204.183 225.235 204.183 Z "
         fill="rgb(78,122,181)"
         id="path49" />
    </g>
  </g>
  <path
     style="fill:#ffffff;fill-opacity:0.783133;stroke-width:0.534442"
     d="m 215.11283,369.57436 c -21.35927,-3.64607 -39.9963,-18.68319 -47.60759,-38.41173 -3.9547,-10.2506 -3.96605,-10.35405 -3.96605,-36.15075 v -23.24822 l 1.43234,-3.05598 c 2.00008,-4.2673 5.75305,-8.08988 9.99081,-10.17612 l 3.51875,-1.73227 h 46.77489 46.7749 l 3.5215,1.7232 c 4.24118,2.07537 8.00374,5.90357 10.01053,10.18519 l 1.43234,3.05598 v 22.71377 c 0,25.28637 -0.11708,26.39146 -3.82178,36.07483 -7.79284,20.36892 -26.44375,35.53204 -48.00697,39.0295 -5.77546,0.93674 -14.54165,0.93351 -20.05367,-0.007 z"
     id="path984" />
  <path
     style="fill:#ffffff;fill-opacity:0.783133;stroke-width:0.534442"
     d="m 194.27888,244.10629 c 0.022,-2.85473 1.65593,-8.56707 3.49533,-12.22016 1.37213,-2.72507 3.18388,-5.14347 5.85318,-7.81309 18.26063,-18.26275 48.83422,-7.50062 52.35662,18.42993 l 0.38114,2.80582 H 225.31737 194.2696 Z"
     id="path1023" />
  <path
     style="fill:#ffffff;fill-opacity:0.783133;stroke-width:0.534442"
     d="m 398.15914,369.64005 c -2.1255,-0.98768 -4.29351,-3.3537 -5.31606,-5.80162 -0.73448,-1.7583 -0.83002,-9.24763 -0.83002,-65.06829 v -63.0813 h 10.16286 10.16286 l -0.14208,64.08352 -0.14207,64.08353 -1.63426,2.01907 c -2.6448,3.26754 -4.16652,4.13776 -7.57768,4.33343 -1.87133,0.10734 -3.70948,-0.11571 -4.68355,-0.56834 z"
     id="path1062" />
  <path
     style="fill:#ffffff;fill-opacity:0.783133;stroke-width:0.534442"
     d="m 44.35867,369.64907 c -2.133569,-0.97942 -4.523567,-3.42418 -5.41924,-5.54342 -0.599066,-1.41745 -0.726841,-12.85612 -0.726841,-65.06829 v -63.34852 h 10.154394 10.154395 v 63.21811 63.21811 l -1.202494,2.35364 c -1.855087,3.63096 -4.586238,5.51851 -8.292054,5.73081 -1.83615,0.10518 -3.707604,-0.1195 -4.66816,-0.56044 z"
     id="path1101" />
  <path
     style="fill:#e6e6e6;fill-opacity:0.783133;stroke-width:0.534442"
     d="m 194.39912,177.38773 c 0.22132,-44.10183 0.25538,-44.67138 3.68917,-61.68108 3.05968,-15.1565 7.77958,-29.581378 14.94227,-45.66631 4.16603,-9.35549 11.62544,-23.124128 12.38986,-22.869321 0.79515,0.26505 8.5317,14.74856 12.07994,22.614705 10.39061,23.03515 16.36449,45.947776 18.22849,69.914806 0.2948,3.79046 0.536,22.8713 0.536,42.40186 v 35.51012 l -3.60749,-3.3081 c -4.27795,-3.92292 -12.2486,-8.01023 -18.14291,-9.3036 -5.42263,-1.18986 -13.80666,-1.0888 -19.31989,0.23289 -6.91967,1.65886 -13.37017,5.1475 -18.36028,9.92985 l -2.63741,2.52759 z"
     id="path1251" />
  <path
     style="fill:#2b0000;fill-opacity:0.783133;stroke-width:0.534442"
     d="M 146.83789,371.61688 69.210214,342.44295 V 309.90912 277.3753 h 41.366086 41.36609 l 0.2522,20.17518 c 0.27803,22.24341 0.61865,25.10418 4.1965,35.2459 10.96637,31.08503 42.03021,51.09076 74.8886,48.22975 32.92333,-2.86666 58.79184,-25.98917 65.71448,-58.73874 0.93372,-4.41721 1.11199,-7.74853 1.33807,-25.00414 l 0.26082,-19.90795 h 41.36558 41.36559 v 32.53382 32.53383 l -77.36045,29.01918 c -42.54825,15.96055 -77.84145,29.08882 -78.42934,29.17394 -0.58788,0.0851 -36.00133,-12.97352 -78.69655,-29.01919 z"
     id="path1327" />
  <path
     style="fill:#000000;fill-opacity:0.783133;stroke-width:0.534442"
     d="m 43.272185,368.77681 c -0.891509,-0.5714 -2.214253,-1.82997 -2.93943,-2.79681 -1.316361,-1.75506 -1.31905,-1.78482 -1.654883,-18.32561 -0.185009,-9.11223 -0.365383,-38.03221 -0.400831,-64.26662 l -0.06445,-47.69893 H 48.366985 58.52138 v 63.27095 63.27095 l -1.736936,2.58478 c -2.552036,3.79774 -4.658101,5.02017 -8.630104,5.0092 -2.305787,-0.006 -3.736108,-0.31337 -4.882153,-1.04791 z"
     id="path1549" />
  <path
     style="fill:#000000;fill-opacity:0.783133;stroke-width:0.534442"
     d="M 208.69952,394.31437 C 199.73426,391.03887 164.74169,377.9824 130.93824,365.3 L 69.477435,342.24107 69.339684,309.80818 69.201934,277.3753 h 41.156156 c 32.55534,0 41.16137,0.13961 41.18109,0.66805 0.0137,0.36743 0.2496,9.80701 0.52419,20.97684 0.52639,21.41223 0.82936,24.24066 3.43921,32.10697 8.36861,25.22369 29.79956,43.98123 56.22228,49.20881 6.68575,1.32273 19.54291,1.31613 26.63619,-0.0137 29.96958,-5.61858 52.48637,-27.74334 58.81058,-57.78665 0.68839,-3.27025 1.00356,-8.92498 1.34046,-24.04988 0.24225,-10.8759 0.45567,-20.07498 0.47428,-20.44241 0.0267,-0.52837 8.63939,-0.66805 41.18998,-0.66805 h 41.15616 l -0.13775,32.44889 -0.13775,32.44889 -55.31473,20.72494 c -69.92684,26.19971 -99.80271,37.30256 -100.32848,37.28534 -0.22759,-0.007 -7.74901,-2.69349 -16.71428,-5.96899 z"
     id="path1625" />
  <path
     style="fill:#000000;fill-opacity:0.783133;stroke-width:0.534442"
     d="m 213.5095,369.04007 c -17.31335,-3.45491 -33.32857,-14.99059 -42.10323,-30.32671 -3.28883,-5.74813 -6.36982,-14.3566 -7.03398,-19.65333 -0.31421,-2.50592 -0.56588,-14.09389 -0.56588,-26.05606 V 271.4609 l 1.38107,-2.72541 c 1.91242,-3.77398 5.69379,-7.64778 9.59479,-9.82935 l 3.28957,-1.83963 h 47.19538 47.19538 l 3.28957,1.83963 c 3.901,2.18157 7.68237,6.05537 9.59479,9.82935 l 1.38107,2.72541 -0.004,20.99461 c -0.003,11.54704 -0.24352,23.08152 -0.53579,25.6322 -0.59195,5.16608 -2.82399,12.02116 -5.88565,18.07619 -8.53361,16.87683 -25.09414,29.35479 -43.6783,32.91053 -4.93052,0.94336 -18.31453,0.92347 -23.1144,-0.0344 z"
     id="path1664" />
  <path
     style="fill:#000000;fill-opacity:0.783133;stroke-width:0.534442"
     d="m 396.26959,367.88482 c -4.15139,-3.74618 -3.83976,1.44932 -4.1386,-68.99824 l -0.26809,-63.19774 h 10.31635 10.31635 l -0.35337,21.24406 c -0.19434,11.68423 -0.35369,40.56197 -0.35409,64.17275 l -7.3e-4,42.92869 -2.62655,2.75339 -2.62656,2.7534 -3.99127,0.20155 c -3.98947,0.20145 -3.99231,0.20062 -6.27344,-1.85786 z"
     id="path1703" />
  <path
     style="fill:#000000;fill-opacity:0.783133;stroke-width:0.534442"
     d="m 194.60147,243.03741 c 0.64649,-4.26233 2.86033,-10.36716 4.90893,-13.53674 4.01283,-6.20863 11.19553,-11.44178 18.29887,-13.33214 3.74074,-0.99549 11.17516,-0.99549 14.9159,0 5.42807,1.44453 9.65874,3.94404 13.96573,8.25102 5.38038,5.38038 7.67045,10.12489 9.24439,19.1523 l 0.30283,1.73694 h -30.99058 -30.99058 z"
     id="path1742" />
  <path
     style="fill:#000000;fill-opacity:0.783133;stroke-width:0.534442"
     d="m 194.545,186.65398 c 0.36993,-42.0096 0.65187,-52.21361 1.62502,-58.81422 2.26291,-15.34857 6.81444,-32.29306 12.64451,-47.073098 3.46406,-8.78188 13.43404,-29.194021 15.52093,-31.776944 l 1.22408,-1.515033 2.61765,4.663485 c 13.68822,24.38633 21.86716,48.15381 26.01347,75.59342 1.19957,7.93862 1.9594,34.34019 2.03534,70.72125 l 0.0389,18.61318 -2.80582,-2.38077 c -5.7368,-4.86774 -13.13788,-8.64935 -19.66925,-10.05008 -4.57842,-0.98189 -17.10904,-0.32929 -21.34916,1.11189 -5.24014,1.78107 -10.24982,4.59272 -14.41635,8.09109 l -3.74636,3.14557 z"
     id="path1781" />
  <path
     style="fill:#ececec;fill-opacity:0.783133;stroke-width:0.534442"
     d="m 218.05226,380.50195 c -28.32509,-3.15778 -51.77171,-21.67629 -61.38553,-48.48325 -3.32401,-9.2686 -3.68864,-12.48293 -3.94032,-34.73545 l -0.2312,-20.44239 h -41.6425 -41.642496 v -5.0772 -5.0772 l 42.621736,-0.0335 42.62173,-0.0335 1.74998,-3.57825 c 4.30745,-8.80764 13.28975,-15.19812 23.36828,-16.62542 1.9734,-0.27946 3.74281,-0.66277 3.93202,-0.8518 0.18921,-0.18903 0.4831,-25.3958 0.65308,-56.01504 0.33133,-59.68219 0.25712,-57.98199 3.2068,-73.47528 2.58693,-13.58794 7.85581,-30.95812 13.40451,-44.191337 3.76466,-8.978431 12.01147,-25.035181 16.6137,-32.347295 5.08494,-8.079074 7.29094,-11.209712 7.8989,-11.209712 0.27324,0 2.14642,2.465113 4.16261,5.478028 16.671,24.912491 29.33844,56.55165 34.28959,85.644296 2.56073,15.04665 2.67429,18.17587 2.68037,73.85384 l 0.006,52.47615 2.5386,0.31681 c 9.61856,1.20034 17.26851,5.43885 22.593,12.51784 1.46086,1.94223 3.05027,4.55345 3.53202,5.8027 l 0.8759,2.27138 h 42.68274 42.68273 v 5.0772 5.0772 h -41.6336 -41.63331 l -0.25964,20.17517 c -0.22598,17.55982 -0.39986,20.83838 -1.34139,25.29114 -5.47314,25.88439 -23.62625,46.4693 -48.23447,54.69598 -9.49318,3.17363 -21.0572,4.51471 -30.16985,3.4988 z m 17.35467,-10.42464 c 22.73195,-3.68652 41.83013,-19.89702 49.13738,-41.70771 2.92442,-8.72882 3.2526,-12.20461 3.2526,-34.449 0,-18.13731 -0.10047,-20.51399 -0.98775,-23.36483 -1.83627,-5.89993 -5.52024,-9.95372 -11.65934,-12.82976 l -3.11894,-1.46116 H 225.2395 178.44813 l -4.0793,2.01609 c -4.64199,2.2942 -7.58562,5.25431 -9.88875,9.9441 l -1.47533,3.00418 0.0137,23.78266 0.0137,23.78266 1.48143,5.34441 c 4.99414,18.01698 17.62445,33.13134 34.16248,40.88132 4.95056,2.31991 12.31878,4.58098 17.23841,5.28991 5.22055,0.7523 14.06953,0.64658 19.49244,-0.23287 z m 21.12862,-127.57434 c -1.15786,-10.49002 -7.72268,-19.99142 -17.06902,-24.70432 -18.34659,-9.2513 -40.73477,1.39482 -44.92736,21.36406 -0.432,2.0576 -0.78963,4.40246 -0.79474,5.21081 l -0.009,1.46971 h 31.58455 31.58454 z m -54.63923,-30.78901 c 11.72685,-8.02504 27.96597,-9.33751 40.86295,-3.30262 4.15507,1.94429 7.18045,4.01336 11.08132,7.57853 l 3.04132,2.7796 -0.23523,-40.57535 c -0.18913,-32.62178 -0.3976,-41.78011 -1.06354,-46.72144 -3.31079,-24.56642 -9.34996,-44.778806 -19.93076,-66.70586 -4.86077,-10.073197 -9.67537,-18.804825 -10.36894,-18.804825 -0.53904,0 -5.29706,8.389371 -9.26912,16.343364 -9.10909,18.24085 -16.35479,40.176601 -19.5811,59.280151 -2.24191,13.27479 -2.30751,14.72962 -2.54097,56.3616 l -0.22916,40.86279 2.84185,-2.67561 c 1.56302,-1.47159 3.98914,-3.46074 5.39138,-4.42033 z"
     id="path1894" />
  <path
     style="fill:#00ff00;fill-opacity:0.783133;stroke-width:0.534442"
     d="M 147.10511,382.77716 69.210214,353.53982 v -5.27127 c 0,-4.80392 0.08292,-5.2387 0.935273,-4.90388 0.5144,0.20207 35.608483,13.37222 77.986863,29.26701 l 77.05158,28.89961 77.4021,-29.01865 c 42.57115,-15.96026 77.70272,-29.13041 78.07015,-29.267 0.50606,-0.18814 0.66805,1.02925 0.66805,5.02048 v 5.26884 l -77.62767,29.08499 c -42.69522,15.99674 -77.86818,29.15463 -78.16212,29.23977 -0.29394,0.0851 -35.58714,-13.00202 -78.42933,-29.08256 z"
     id="path2046" />
  <path
     style="fill:#00ff00;fill-opacity:0.783133;stroke-width:0.534442"
     d="m 214.57838,379.76467 c -16.90645,-3.05672 -30.46953,-10.23487 -41.72628,-22.08329 -7.06094,-7.43206 -12.63069,-16.50953 -15.99005,-26.06024 -2.93182,-8.33522 -3.20244,-10.69841 -3.73325,-32.60095 -0.2707,-11.16983 -0.50422,-20.72966 -0.51893,-21.24406 -0.0252,-0.88251 -2.37828,-0.93527 -41.7132,-0.93527 H 69.210214 v -5.0772 -5.0772 h 42.747646 42.74766 l 1.56526,-3.10078 c 2.28521,-4.52697 5.42907,-8.24383 9.32357,-11.02288 4.40794,-3.14545 7.26505,-4.38768 12.9478,-5.62952 2.52824,-0.55249 4.75632,-1.16367 4.95131,-1.35819 0.19498,-0.19452 0.4198,-6.6471 0.4996,-14.33908 1.08973,-105.05307 0.99999,-102.51034 4.14318,-117.39991 4.18663,-19.832495 10.22157,-37.045939 19.51868,-55.673002 6.66885,-13.361265 16.25751,-29.303241 17.62509,-29.303241 0.22755,0 2.21832,2.705612 4.42393,6.012471 19.2116,28.80385 33.00548,67.279802 35.58985,99.272562 0.2968,3.67429 0.69717,30.24941 0.88971,59.05582 0.19255,28.80642 0.50472,52.51246 0.69374,52.6801 0.18902,0.16765 2.07951,0.58642 4.2011,0.93062 10.08651,1.63637 18.51796,7.75029 23.17091,16.80199 l 1.57968,3.07304 h 42.74765 42.74765 v 5.0772 5.0772 h -41.68646 -41.68646 l -0.0327,1.46971 c -0.7502,33.70145 -1.03984,40.80602 -1.80277,44.2205 -6.38885,28.59298 -28.23988,50.48581 -56.28833,56.39596 -6.77621,1.42783 -19.6269,1.85415 -25.24912,0.83764 z m 26.21468,-10.59987 c 17.79485,-4.71765 32.55765,-16.55338 40.65506,-32.59425 2.33075,-4.6172 5.11767,-13.39924 5.81069,-18.31045 0.3923,-2.78008 0.54518,-11.75284 0.4371,-25.65321 l -0.16622,-21.37767 -1.53608,-3.3255 c -1.87236,-4.05355 -5.81254,-7.94217 -10.38756,-10.25163 l -3.27747,-1.65447 H 225.227 178.12543 l -3.61767,1.90104 c -4.41878,2.322 -7.92847,5.73785 -10.11982,9.84925 l -1.65041,3.09648 v 24.03918 24.03918 l 1.62268,5.54754 c 1.98045,6.77059 6.48105,16.01433 10.24707,21.04634 5.74986,7.6827 14.49896,15.06637 22.74226,19.19296 3.5638,1.78404 11.5728,4.47676 16.12841,5.42256 2.41153,0.50066 6.42399,0.67441 12.85815,0.5568 7.95092,-0.14533 10.11777,-0.37377 14.45696,-1.52415 z m 16.17581,-125.59295 c -0.95318,-8.22749 -3.77193,-14.13765 -9.52231,-19.96571 -4.65563,-4.71851 -8.50411,-6.94869 -14.75391,-8.54981 -4.63725,-1.18801 -12.80889,-0.80134 -17.57982,0.83186 -11.73074,4.0157 -20.17132,14.49833 -21.21497,26.34756 l -0.31773,3.60748 h 31.82594 31.82595 z m -59.57456,-27.71122 c 11.16162,-10.23465 26.78137,-13.53897 41.17525,-8.7105 5.62012,1.88529 12.56664,6.19652 15.81876,9.81763 2.92005,3.25136 2.77224,5.1256 2.56177,-32.48381 -0.2274,-40.63556 -0.66722,-51.35151 -2.55894,-62.34767 -3.65709,-21.25789 -9.73201,-39.584683 -20.02399,-60.408251 -5.51274,-11.153819 -8.16944,-15.766034 -9.08146,-15.766034 -0.76969,0 -2.80761,3.382745 -7.57359,12.571387 -13.70612,26.424913 -22.19039,55.905538 -23.45224,81.490368 -0.47999,9.73237 -1.03069,79.09739 -0.62796,79.09739 0.11362,0 1.8067,-1.46723 3.7624,-3.26051 z"
     id="path2122" />
  <path
     style="fill:#000000;fill-opacity:0.783133;stroke-width:0.534442"
     d="m 44.96647,140.87145 c -6.129723,-2.26604 -8.587934,-9.77546 -4.983146,-15.22266 2.453755,-3.70787 8.086082,-5.3624 12.283878,-3.60845 2.200975,0.91963 4.885599,3.96546 5.717831,6.48715 2.458954,7.4507 -5.595763,15.08804 -13.018563,12.34396 z"
     id="path2198" />
  <path
     style="fill:#000000;fill-opacity:0.783133;stroke-width:0.534442"
     d="m 399.01028,140.96409 c -2.61656,-0.87471 -5.69634,-4.03048 -6.47268,-6.6324 -1.0628,-3.56196 -0.30319,-6.81875 2.23184,-9.56894 2.50838,-2.72127 4.92602,-3.66392 8.51298,-3.31926 6.94455,0.66728 11.05404,8.13129 7.87187,14.29758 -2.28217,4.42232 -7.64267,6.72781 -12.14401,5.22302 z"
     id="path2237" />
  <path
     style="fill:#00ff00;fill-opacity:0.783133;stroke-width:0.534442"
     d="m 44.091449,380.34857 c -8.23486,-1.85898 -14.447786,-8.32902 -15.985441,-16.64696 -0.400427,-2.1661 -0.582255,-24.31498 -0.582255,-70.92566 V 225 h 7.749406 7.749406 l 0.0013,-36.47565 0.0013,-36.47566 5.34311,-0.002 5.34316,-0.002 V 188.52233 225 h 7.482186 7.482185 v 69.45876 c 0,76.6425 0.221987,71.53449 -3.353962,77.17605 -4.263752,6.72668 -13.407675,10.4797 -21.230361,8.71376 z m 10.243177,-11.3508 c 1.221557,-0.86297 2.723428,-2.53102 3.337492,-3.7068 1.111872,-2.12894 1.117058,-2.40195 1.256477,-66.13717 l 0.139996,-63.99941 H 48.373369 37.678147 v 63.61575 c 0,69.00482 -0.139003,65.62438 2.831328,68.85542 3.339577,3.63269 9.727807,4.26675 13.825151,1.37221 z"
     id="path2276" />
  <path
     style="fill:#00ff00;fill-opacity:0.783133;stroke-width:0.534442"
     d="m 398.5705,380.5158 c -3.18677,-0.66016 -6.80879,-2.35142 -9.35548,-4.36843 -2.80045,-2.218 -6.0235,-7.21224 -6.74793,-10.45617 -0.95098,-4.25845 -1.26901,-37.94214 -0.85528,-90.58728 L 382.00556,225 h 7.40874 7.40874 l 0.001,-36.47565 10e-4,-36.47566 5.34311,-0.002 5.34311,-0.002 V 188.52233 225 h 7.48218 7.48219 v 69.72461 c 0,69.23046 -0.008,69.74558 -1.1077,72.6852 -1.33235,3.56102 -4.57576,7.80463 -7.38705,9.66504 -4.48997,2.97133 -10.83701,4.38849 -15.411,3.44095 z m 7.74875,-10.44036 c 2.64093,-1.10344 4.33285,-2.73169 5.52693,-5.31891 0.94154,-2.04006 0.98718,-5.05069 0.99838,-65.86995 l 0.0117,-63.73219 H 402.159 391.46173 l 0.14204,64.35434 0.14204,64.35434 1.61048,2.31728 c 2.90557,4.18077 8.35806,5.81913 12.96293,3.89509 z"
     id="path2389" />
</svg>
