<?xml version="1.0" encoding="UTF-8" standalone="no"?>
<!-- Generator: Gravit.io -->

<svg
   style="isolation:isolate"
   viewBox="0 0 450 450"
   width="450"
   height="450"
   version="1.1"
   id="svg54"
   sodipodi:docname="Space-Fighter-2.svg"
   inkscape:version="1.1.1 (3bf5ae0d25, 2021-09-20)"
   xmlns:inkscape="http://www.inkscape.org/namespaces/inkscape"
   xmlns:sodipodi="http://sodipodi.sourceforge.net/DTD/sodipodi-0.dtd"
   xmlns="http://www.w3.org/2000/svg"
   xmlns:svg="http://www.w3.org/2000/svg">
  <sodipodi:namedview
     id="namedview56"
     pagecolor="#ffffff"
     bordercolor="#666666"
     borderopacity="1.0"
     inkscape:pageshadow="2"
     inkscape:pageopacity="0.0"
     inkscape:pagecheckerboard="0"
     showgrid="false"
     inkscape:zoom="1.8711111"
     inkscape:cx="224.73278"
     inkscape:cy="225.26722"
     inkscape:window-width="1920"
     inkscape:window-height="1027"
     inkscape:window-x="-8"
     inkscape:window-y="-8"
     inkscape:window-maximized="1"
     inkscape:current-layer="svg54" />
  <defs
     id="defs5">
    <clipPath
       id="_clipPath_sqw8sD3hp8F85bQUW9ZOX5rHTeD9S75T">
      <rect
         width="450"
         height="450"
         id="rect2" />
    </clipPath>
  </defs>
  <g
     clip-path="url(#_clipPath_sqw8sD3hp8F85bQUW9ZOX5rHTeD9S75T)"
     id="g52">
    <g
       id="Group">
      <line
         x1="402.183"
         y1="239.125"
         x2="402.183"
         y2="140.242"
         vector-effect="non-scaling-stroke"
         stroke-width="20.817"
         stroke="rgb(116,150,196)"
         stroke-linejoin="miter"
         stroke-linecap="butt"
         stroke-miterlimit="10"
         id="line7" />
      <line
         x1="48.288"
         y1="239.125"
         x2="48.288"
         y2="140.242"
         vector-effect="non-scaling-stroke"
         stroke-width="20.817"
         stroke="rgb(116,150,196)"
         stroke-linejoin="miter"
         stroke-linecap="butt"
         stroke-miterlimit="10"
         id="line9" />
      <path
         d=" M 188.805 251.022 L 188.805 152.139 C 188.805 96.578 214.962 51.748 225.246 36.26 C 235.55 51.685 261.666 96.286 261.666 152.139 L 261.666 251.022 L 188.805 251.022 Z "
         fill="rgb(139,183,240)"
         id="path11" />
      <path
         d=" M 225.277 45.94 C 236.831 64.904 256.461 104.187 256.461 152.139 L 256.461 245.817 L 194.009 245.817 L 194.009 152.139 C 194.009 104.593 213.723 65.04 225.277 45.94 Z  M 225.235 27.235 C 225.235 27.235 183.601 80.58 183.601 152.139 L 183.601 256.226 L 266.87 256.226 L 266.87 152.139 C 266.87 80.153 225.235 27.235 225.235 27.235 Z "
         fill="rgb(78,122,181)"
         id="path13" />
      <rect
         x="272.074"
         y="357.336"
         width="41.635"
         height="60.225"
         transform="matrix(1,0,0,1,0,0)"
         fill="rgb(220,213,242)"
         id="rect15" />
      <path
         d=" M 308.505 362.54 L 308.505 412.356 L 277.279 412.356 L 277.279 362.54 L 308.505 362.54 Z  M 318.913 352.131 L 266.87 352.131 L 266.87 422.765 L 318.913 422.765 L 318.913 352.131 Z "
         fill="rgb(139,117,161)"
         id="path17" />
      <rect
         x="136.762"
         y="357.336"
         width="41.635"
         height="60.225"
         transform="matrix(1,0,0,1,0,0)"
         fill="rgb(220,213,242)"
         id="rect19" />
      <path
         d=" M 173.192 362.54 L 173.192 412.356 L 141.966 412.356 L 141.966 362.54 L 173.192 362.54 Z  M 183.601 352.131 L 131.557 352.131 L 131.557 422.765 L 183.601 422.765 L 183.601 352.131 Z "
         fill="rgb(139,117,161)"
         id="path21" />
      <path
         d=" M 63.901 346.292 L 63.901 271.839 L 386.57 271.839 L 386.57 346.292 L 225.235 406.798 L 63.901 346.292 Z "
         fill="rgb(139,183,240)"
         id="path23" />
      <path
         d=" M 381.365 277.043 L 381.365 342.691 L 225.235 401.24 L 69.105 342.691 L 69.105 277.043 L 381.365 277.043 Z  M 391.774 266.635 L 58.697 266.635 L 58.697 349.904 L 225.235 412.356 L 391.774 349.904 L 391.774 266.635 Z "
         fill="rgb(78,122,181)"
         id="path25" />
      <path
         d=" M 402.183 375.926 C 393.575 375.926 386.57 368.921 386.57 360.313 L 386.57 230.204 L 417.796 230.204 L 417.796 360.313 C 417.796 368.921 410.791 375.926 402.183 375.926 Z "
         fill="rgb(194,232,255)"
         id="path27" />
      <path
         d=" M 412.591 235.409 L 412.591 360.313 C 412.591 366.048 407.918 370.721 402.183 370.721 C 396.447 370.721 391.774 366.048 391.774 360.313 L 391.774 235.409 L 412.591 235.409 Z  M 423 225 L 381.365 225 L 381.365 360.313 C 381.365 371.81 390.686 381.13 402.183 381.13 C 413.68 381.13 423 371.81 423 360.313 L 423 225 Z "
         fill="rgb(116,150,196)"
         id="path29" />
      <path
         d=" M 386.57 131.322 C 386.57 122.705 393.566 115.709 402.183 115.709 C 410.8 115.709 417.796 122.705 417.796 131.322 C 417.796 139.939 410.8 146.935 402.183 146.935 C 393.566 146.935 386.57 139.939 386.57 131.322 Z "
         fill="rgb(247,143,143)"
         id="path31" />
      <path
         d=" M 402.183 120.913 C 407.918 120.913 412.591 125.587 412.591 131.322 C 412.591 137.057 407.918 141.731 402.183 141.731 C 396.447 141.731 391.774 137.057 391.774 131.322 C 391.774 125.587 396.447 120.913 402.183 120.913 Z  M 402.183 110.505 C 394.636 110.334 387.589 114.262 383.764 120.769 C 379.94 127.277 379.938 135.345 383.759 141.855 C 387.58 148.365 394.626 152.296 402.172 152.129 C 413.485 151.879 422.527 142.638 422.529 131.322 C 422.532 120.006 413.496 110.76 402.183 110.505 Z "
         fill="rgb(199,67,67)"
         id="path33" />
      <path
         d=" M 48.288 375.926 C 39.68 375.926 32.675 368.921 32.675 360.313 L 32.675 230.204 L 63.901 230.204 L 63.901 360.313 C 63.901 368.921 56.896 375.926 48.288 375.926 Z "
         fill="rgb(194,232,255)"
         id="path35" />
      <path
         d=" M 58.697 235.409 L 58.697 360.313 C 58.697 366.048 54.023 370.721 48.288 370.721 C 42.553 370.721 37.879 366.048 37.879 360.313 L 37.879 235.409 L 58.697 235.409 Z  M 69.105 225 L 27.471 225 L 27.471 360.313 C 27.471 371.81 36.791 381.13 48.288 381.13 C 59.785 381.13 69.105 371.81 69.105 360.313 L 69.105 225 Z "
         fill="rgb(116,150,196)"
         id="path37" />
      <path
         d=" M 32.675 131.322 C 32.675 122.705 39.671 115.709 48.288 115.709 C 56.905 115.709 63.901 122.705 63.901 131.322 C 63.901 139.939 56.905 146.935 48.288 146.935 C 39.671 146.935 32.675 139.939 32.675 131.322 Z "
         fill="rgb(247,143,143)"
         id="path39" />
      <path
         d=" M 48.288 120.913 C 54.023 120.913 58.697 125.587 58.697 131.322 C 58.697 137.057 54.023 141.731 48.288 141.731 C 42.553 141.731 37.879 137.057 37.879 131.322 C 37.879 125.587 42.553 120.913 48.288 120.913 Z  M 48.288 110.505 C 40.742 110.334 33.694 114.262 29.87 120.769 C 26.045 127.277 26.043 135.345 29.864 141.855 C 33.686 148.365 40.731 152.296 48.278 152.129 C 59.591 151.879 68.632 142.638 68.635 131.322 C 68.637 120.006 59.601 110.76 48.288 110.505 Z "
         fill="rgb(199,67,67)"
         id="path41" />
      <path
         d=" M 225.235 375.926 C 187.889 375.88 157.625 345.616 157.579 308.269 L 157.579 277.043 C 157.579 262.69 169.247 251.022 183.601 251.022 L 266.87 251.022 C 281.224 251.022 292.892 262.69 292.892 277.043 L 292.892 308.269 C 292.892 345.574 262.54 375.926 225.235 375.926 Z "
         fill="rgb(194,232,255)"
         id="path43" />
      <path
         d=" M 266.87 256.226 C 278.351 256.226 287.687 265.563 287.687 277.043 L 287.687 308.269 C 287.687 342.701 259.667 370.721 225.235 370.721 C 190.803 370.721 162.783 342.701 162.783 308.269 L 162.783 277.043 C 162.783 265.563 172.12 256.226 183.601 256.226 L 266.87 256.226 Z  M 266.87 245.817 L 183.601 245.817 C 166.355 245.817 152.375 259.798 152.375 277.043 L 152.375 308.269 C 152.375 348.509 184.995 381.13 225.235 381.13 C 265.475 381.13 298.096 348.509 298.096 308.269 L 298.096 277.043 C 298.096 259.798 284.116 245.817 266.87 245.817 Z "
         fill="rgb(78,122,181)"
         id="path45" />
      <path
         d=" M 188.805 251.022 L 188.805 245.817 C 188.805 225.729 205.147 209.387 225.235 209.387 C 245.324 209.387 261.666 225.729 261.666 245.817 L 261.666 251.022 L 188.805 251.022 Z "
         fill="rgb(194,232,255)"
         id="path47" />
      <path
         d=" M 225.235 214.591 C 242.451 214.591 256.461 228.601 256.461 245.817 L 194.009 245.817 C 194.009 228.601 208.019 214.591 225.235 214.591 Z  M 225.235 204.183 C 202.241 204.183 183.601 222.823 183.601 245.817 L 183.601 256.226 L 266.87 256.226 L 266.87 245.817 C 266.87 222.823 248.23 204.183 225.235 204.183 Z "
         fill="rgb(78,122,181)"
         id="path49" />
    </g>
  </g>
  <path
     style="fill:#ffffff;fill-opacity:0.783133;stroke-width:0.534442"
     d="m 215.11283,369.57436 c -21.35927,-3.64607 -39.9963,-18.68319 -47.60759,-38.41173 -3.9547,-10.2506 -3.96605,-10.35405 -3.96605,-36.15075 v -23.24822 l 1.43234,-3.05598 c 2.00008,-4.2673 5.75305,-8.08988 9.99081,-10.17612 l 3.51875,-1.73227 h 46.77489 46.7749 l 3.5215,1.7232 c 4.24118,2.07537 8.00374,5.90357 10.01053,10.18519 l 1.43234,3.05598 v 22.71377 c 0,25.28637 -0.11708,26.39146 -3.82178,36.07483 -7.79284,20.36892 -26.44375,35.53204 -48.00697,39.0295 -5.77546,0.93674 -14.54165,0.93351 -20.05367,-0.007 z"
     id="path984" />
  <path
     style="fill:#ffffff;fill-opacity:0.783133;stroke-width:0.534442"
     d="m 194.27888,244.10629 c 0.022,-2.85473 1.65593,-8.56707 3.49533,-12.22016 1.37213,-2.72507 3.18388,-5.14347 5.85318,-7.81309 18.26063,-18.26275 48.83422,-7.50062 52.35662,18.42993 l 0.38114,2.80582 H 225.31737 194.2696 Z"
     id="path1023" />
  <path
     style="fill:#ffffff;fill-opacity:0.783133;stroke-width:0.534442"
     d="m 398.15914,369.64005 c -2.1255,-0.98768 -4.29351,-3.3537 -5.31606,-5.80162 -0.73448,-1.7583 -0.83002,-9.24763 -0.83002,-65.06829 v -63.0813 h 10.16286 10.16286 l -0.14208,64.08352 -0.14207,64.08353 -1.63426,2.01907 c -2.6448,3.26754 -4.16652,4.13776 -7.57768,4.33343 -1.87133,0.10734 -3.70948,-0.11571 -4.68355,-0.56834 z"
     id="path1062" />
  <path
     style="fill:#ffffff;fill-opacity:0.783133;stroke-width:0.534442"
     d="m 44.35867,369.64907 c -2.133569,-0.97942 -4.523567,-3.42418 -5.41924,-5.54342 -0.599066,-1.41745 -0.726841,-12.85612 -0.726841,-65.06829 v -63.34852 h 10.154394 10.154395 v 63.21811 63.21811 l -1.202494,2.35364 c -1.855087,3.63096 -4.586238,5.51851 -8.292054,5.73081 -1.83615,0.10518 -3.707604,-0.1195 -4.66816,-0.56044 z"
     id="path1101" />
  <path
     style="fill:#e6e6e6;fill-opacity:0.783133;stroke-width:0.534442"
     d="m 194.39912,177.38773 c 0.22132,-44.10183 0.25538,-44.67138 3.68917,-61.68108 3.05968,-15.1565 7.77958,-29.581378 14.94227,-45.66631 4.16603,-9.35549 11.62544,-23.124128 12.38986,-22.869321 0.79515,0.26505 8.5317,14.74856 12.07994,22.614705 10.39061,23.03515 16.36449,45.947776 18.22849,69.914806 0.2948,3.79046 0.536,22.8713 0.536,42.40186 v 35.51012 l -3.60749,-3.3081 c -4.27795,-3.92292 -12.2486,-8.01023 -18.14291,-9.3036 -5.42263,-1.18986 -13.80666,-1.0888 -19.31989,0.23289 -6.91967,1.65886 -13.37017,5.1475 -18.36028,9.92985 l -2.63741,2.52759 z"
     id="path1251" />
  <path
     style="fill:#e6e6e6;fill-opacity:0.783133;stroke-width:0.534442"
     d="M 146.83789,371.61688 69.210214,342.44295 V 309.90912 277.3753 h 41.366086 41.36609 l 0.2522,20.17518 c 0.27803,22.24341 0.61865,25.10418 4.1965,35.2459 10.96637,31.08503 42.03021,51.09076 74.8886,48.22975 32.92333,-2.86666 58.79184,-25.98917 65.71448,-58.73874 0.93372,-4.41721 1.11199,-7.74853 1.33807,-25.00414 l 0.26082,-19.90795 h 41.36558 41.36559 v 32.53382 32.53383 l -77.36045,29.01918 c -42.54825,15.96055 -77.84145,29.08882 -78.42934,29.17394 -0.58788,0.0851 -36.00133,-12.97352 -78.69655,-29.01919 z"
     id="path1327" />
  <path
     style="fill:#ffffff;fill-opacity:0.783133;stroke-width:0.534442"
     d="m 44.96647,140.87146 c -6.129723,-2.26605 -8.587934,-9.77547 -4.983146,-15.22267 2.453755,-3.70787 8.086082,-5.3624 12.283878,-3.60844 2.200976,0.91962 4.885599,3.96545 5.717832,6.48714 2.458954,7.4507 -5.595764,15.08804 -13.018564,12.34397 z"
     id="path926" />
  <path
     style="fill:#ffffff;fill-opacity:0.783133;stroke-width:0.534442"
     d="m 399.01029,140.96409 c -2.61657,-0.87471 -5.69635,-4.03048 -6.47269,-6.63239 -1.0628,-3.56197 -0.30319,-6.81876 2.23184,-9.56894 2.50838,-2.72128 4.92602,-3.66393 8.51298,-3.31927 6.94455,0.66728 11.05404,8.13129 7.87187,14.29758 -2.28217,4.42232 -7.64266,6.72781 -12.144,5.22302 z"
     id="path965" />
</svg>
